<?xml version="1.0" standalone="no"?>
<!DOCTYPE svg PUBLIC "-//W3C//DTD SVG 20010904//EN"
 "http://www.w3.org/TR/2001/REC-SVG-20010904/DTD/svg10.dtd">
<svg version="1.0" xmlns="http://www.w3.org/2000/svg"
 width="600.000000pt" height="600.000000pt" viewBox="0 0 600.000000 600.000000"
 preserveAspectRatio="xMidYMid meet">

<g transform="translate(0.000000,600.000000) scale(0.100000,-0.100000)"
fill="#000000" stroke="none">
<path d="M3520 5986 c-26 -6 -62 -22 -80 -33 -19 -12 -629 -617 -1356 -1345
-1134 -1136 -1329 -1335 -1376 -1408 -105 -160 -162 -301 -200 -492 -17 -90
-22 -148 -22 -283 0 -245 39 -431 130 -624 96 -203 107 -216 783 -892 652
-653 680 -678 849 -763 404 -203 976 -188 1356 36 135 79 233 167 592 535 333
340 363 374 384 429 28 74 25 184 -7 256 -30 66 -97 135 -168 171 -54 28 -69
31 -150 32 -79 0 -96 -3 -143 -28 -37 -19 -163 -134 -427 -390 -382 -368 -440
-416 -545 -450 -202 -65 -463 -39 -616 62 -36 24 -229 211 -499 482 -703 709
-727 734 -768 815 -100 198 -102 436 -5 633 40 83 50 95 600 653 308 312 582
588 610 613 102 92 241 136 426 136 139 1 226 -17 329 -67 65 -31 108 -69 455
-404 437 -423 450 -432 580 -432 153 0 274 85 329 232 17 43 20 71 17 131 -7
129 -9 132 -422 548 -365 367 -463 455 -592 527 -72 40 -201 93 -279 114 -27
7 -52 15 -54 17 -3 2 142 151 322 331 281 283 330 336 354 388 83 182 -21 404
-218 465 -69 22 -124 23 -189 5z"/>
<path d="M2591 2734 c-99 -26 -162 -82 -210 -184 -22 -46 -26 -69 -26 -140 0
-76 4 -93 33 -152 37 -76 82 -120 162 -157 l55 -26 1330 0 1330 0 67 33 c75
37 124 88 160 168 33 74 32 199 -3 274 -49 103 -113 158 -216 185 -85 22
-2600 21 -2682 -1z"/>
</g>
</svg>
