<svg xmlns="http://www.w3.org/2000/svg" viewBox="184.6005 150.8498 251 267.8477">
  <path d="M 751.04 2687.477 L 766.608 602.651 L 2028 600 L 2043 576 C 2061 549 2034 30 2052 30 C 2070 30 2530 486 2530 503 C 2530 507 2310 510 2310 510 L 2310 655 C 2310 792 2309 801 2288 823 L 2262.248 840.352 L 1668 848 L 1070 850 L 1065 2685 L 751.04 2687.477 Z" style="fill: #000000;" transform="matrix(0.10000000149011612, 0, 0, -0.10000000149011612, 182.60052490234375, 419.5975036621094)"/>
  <path d="M 499.663 2656.366 C 492.663 2656.366 20 2217 20 2211 C 20 2203 239 2199 239 2199 L 235 25 L 1731 9 L 1728 137 L 1729.245 303.089 L 526.278 305.355 C 526.278 305.355 515.663 2657.366 499.663 2656.366 Z" style="fill: #000000;" transform="matrix(0.10000000149011612, 0, 0, -0.10000000149011612, 182.60052490234375, 419.5975036621094)"/>
</svg>